<?xml version="1.0" encoding="utf-8"?>
<!-- Generator: Adobe Illustrator 22.0.0, SVG Export Plug-In . SVG Version: 6.00 Build 0)  -->
<svg version="1.1" id="Calque_1" xmlns="http://www.w3.org/2000/svg" xmlns:xlink="http://www.w3.org/1999/xlink" x="0px" y="0px"
	 viewBox="0 0 45 12" enable-background="new 0 0 45 12" xml:space="preserve">
<g>
	<path fill="#FFFFFF" d="M9.603,5.183H6.077c-0.091,0-0.165,0.074-0.165,0.165v1.724c0,0.091,0.074,0.165,0.165,0.165h1.375v2.142
		c0,0-0.309,0.105-1.163,0.105c-1.007,0-2.414-0.368-2.414-3.462c0-3.095,1.465-3.502,2.841-3.502c1.191,0,1.704,0.21,2.03,0.311
		c0.103,0.031,0.197-0.071,0.197-0.162l0.393-1.666c0-0.043-0.014-0.094-0.063-0.129C9.142,0.779,8.333,0.327,6.29,0.327
		c-2.354,0-4.768,1.001-4.768,5.815c0,4.814,2.764,5.531,5.094,5.531c1.929,0,3.099-0.824,3.099-0.824
		c0.048-0.027,0.053-0.094,0.053-0.125V5.348C9.767,5.257,9.694,5.183,9.603,5.183z"/>
	<path fill="#FFFFFF" d="M27.773,0.904c0-0.092-0.073-0.166-0.164-0.166h-1.985c-0.091,0-0.164,0.074-0.164,0.166
		c0,0,0.001,3.836,0.001,3.836h-3.094V0.904c0-0.092-0.073-0.166-0.164-0.166h-1.985c-0.09,0-0.164,0.074-0.164,0.166v10.388
		c0,0.092,0.074,0.166,0.164,0.166h1.985c0.091,0,0.164-0.075,0.164-0.166V6.848h3.094c0,0-0.005,4.443-0.005,4.443
		c0,0.092,0.074,0.166,0.164,0.166h1.99c0.091,0,0.164-0.075,0.164-0.166V0.904z"/>
	<g>
		<g>
			<path fill="#FFFFFF" d="M13.349,2.267c0-0.715-0.573-1.292-1.28-1.292c-0.706,0-1.28,0.578-1.28,1.292
				c0,0.714,0.574,1.293,1.28,1.293C12.776,3.56,13.349,2.981,13.349,2.267z"/>
			<path fill="#FFFFFF" d="M13.207,9.1c0-0.266,0-4.795,0-4.795c0-0.091-0.073-0.165-0.164-0.165h-1.979
				c-0.091,0-0.172,0.094-0.172,0.185c0,0,0,5.77,0,6.87c0,0.202,0.126,0.262,0.289,0.262c0,0,0.845,0,1.783,0
				c0.196,0,0.244-0.096,0.244-0.265C13.207,10.823,13.207,9.38,13.207,9.1z"/>
		</g>
	</g>
	<path fill="#FFFFFF" d="M35.317,4.155h-1.97c-0.09,0-0.164,0.074-0.164,0.166v5.094c0,0-0.5,0.366-1.211,0.366
		c-0.71,0-0.899-0.322-0.899-1.018c0-0.696,0-4.442,0-4.442c0-0.092-0.073-0.166-0.164-0.166h-1.999
		c-0.09,0-0.164,0.074-0.164,0.166c0,0,0,2.713,0,4.778c0,2.066,1.151,2.571,2.735,2.571c1.299,0,2.347-0.718,2.347-0.718
		s0.05,0.378,0.072,0.423c0.023,0.045,0.081,0.09,0.145,0.09l1.272-0.006c0.09,0,0.164-0.075,0.164-0.166l-0.001-6.973
		C35.482,4.23,35.408,4.155,35.317,4.155z"/>
	<path fill="#FFFFFF" d="M40.702,3.922c-1.119,0-1.88,0.499-1.88,0.499V0.904c0-0.092-0.073-0.166-0.164-0.166h-1.991
		c-0.091,0-0.164,0.074-0.164,0.166v10.388c0,0.092,0.074,0.166,0.164,0.166c0,0,1.381,0,1.381,0c0.062,0,0.109-0.032,0.144-0.088
		c0.034-0.056,0.084-0.479,0.084-0.479s0.814,0.771,2.355,0.771c1.809,0,2.847-0.918,2.847-4.12
		C43.478,4.34,41.821,3.922,40.702,3.922z M39.925,9.775c-0.683-0.021-1.147-0.331-1.147-0.331v-3.29c0,0,0.457-0.28,1.018-0.33
		c0.709-0.064,1.393,0.151,1.393,1.843C41.189,9.451,40.88,9.804,39.925,9.775z"/>
	<path fill="#FFFFFF" d="M18.912,4.139h-1.489c0,0-0.002-1.967-0.002-1.967c0-0.074-0.038-0.112-0.124-0.112h-2.029
		c-0.079,0-0.121,0.035-0.121,0.111v2.033c0,0-1.017,0.246-1.086,0.265c-0.068,0.02-0.119,0.083-0.119,0.158v1.278
		c0,0.092,0.073,0.166,0.164,0.166h1.04c0,0,0,1.336,0,3.073c0,2.283,1.601,2.507,2.682,2.507c0.494,0,1.084-0.159,1.182-0.195
		c0.059-0.022,0.093-0.083,0.093-0.149l0.002-1.405c0-0.092-0.077-0.166-0.165-0.166c-0.087,0-0.309,0.035-0.537,0.035
		c-0.731,0-0.979-0.34-0.979-0.78c0-0.44,0-2.921,0-2.921h1.489c0.091,0,0.164-0.074,0.164-0.166v-1.6
		C19.077,4.213,19.003,4.139,18.912,4.139z"/>
</g>
</svg>
