<?xml version="1.0" encoding="utf-8"?>
<!-- Generator: Adobe Illustrator 22.0.0, SVG Export Plug-In . SVG Version: 6.00 Build 0)  -->
<svg version="1.1" id="OutLine" xmlns="http://www.w3.org/2000/svg" xmlns:xlink="http://www.w3.org/1999/xlink" x="0px" y="0px"
	 viewBox="0 0 512 512" style="enable-background:new 0 0 512 512;" xml:space="preserve">
<style type="text/css">
	.st0{fill:#FFFFFF;}
</style>
<path class="st0" d="M255.7,354.1c4.1-0.1,7.3-3.7,7.3-7.8v-2.9c13.8-3.4,24.2-15.9,24.2-30.7c0-21.5-22-28.9-29.3-31.3
	c-17.1-5.7-19-12.4-19-17c0-7.6,5-14.2,12.3-16.1c11-2.8,21,5.5,21,16.1c0,4.4,3.8,7.9,8.3,7.5c3.8-0.4,6.7-3.8,6.7-7.7
	c-0.1-14.8-10.4-27.1-24.2-30.5v-3.2c0-4.2-3.5-7.6-7.7-7.5c-4.1,0.1-7.3,3.7-7.3,7.8l0,2.9c-13.8,3.4-24.2,15.9-24.2,30.7
	c0,14.3,9.9,24.8,29.3,31.3c16.4,5.5,18.9,11.5,19,16.7c0.2,7.5-4.5,14.2-11.7,16.3c-11.3,3.2-21.6-5.2-21.6-15.9
	c0-4.4-3.8-7.9-8.3-7.5c-3.8,0.4-6.7,3.8-6.7,7.7c0.1,14.8,10.4,27.1,24.2,30.5v3.2C248,350.8,251.5,354.2,255.7,354.1z"/>
<path class="st0" d="M39.5,104c2,0,3.9-0.8,5.3-2.2c1.4-1.4,2.2-3.3,2.2-5.3s-0.8-3.9-2.2-5.3S41.5,89,39.5,89s-3.9,0.8-5.3,2.2
	c-1.4,1.4-2.2,3.3-2.2,5.3s0.8,3.9,2.2,5.3C35.6,103.2,37.5,104,39.5,104z"/>
<path class="st0" d="M63.5,104c2,0,3.9-0.8,5.3-2.2c1.4-1.4,2.2-3.3,2.2-5.3s-0.8-3.9-2.2-5.3c-1.4-1.4-3.3-2.2-5.3-2.2
	c-2,0-3.9,0.8-5.3,2.2c-1.4,1.4-2.2,3.3-2.2,5.3s0.8,3.9,2.2,5.3C59.6,103.2,61.5,104,63.5,104z"/>
<path class="st0" d="M87.5,104c2,0,3.9-0.8,5.3-2.2c1.4-1.4,2.2-3.3,2.2-5.3s-0.8-3.9-2.2-5.3c-1.4-1.4-3.3-2.2-5.3-2.2
	s-3.9,0.8-5.3,2.2c-1.4,1.4-2.2,3.3-2.2,5.3s0.8,3.9,2.2,5.3C83.6,103.2,85.5,104,87.5,104z"/>
<path class="st0" d="M375.5,281c-9.1,0-16.5-7.4-16.5-16.5v-24c0-17.4-14.1-31.5-31.5-31.5h-8c-4.1,0-7.5,3.4-7.5,7.5
	s3.4,7.5,7.5,7.5h8c9.1,0,16.5,7.4,16.5,16.5v24c0,9.6,4.3,18.2,11.1,24c-6.8,5.8-11.1,14.4-11.1,24v24c0,9.1-7.4,16.5-16.5,16.5h-8
	c-4.1,0-7.5,3.4-7.5,7.5s3.4,7.5,7.5,7.5h8c17.4,0,31.5-14.1,31.5-31.5v-24c0-9.1,7.4-16.5,16.5-16.5c4.1,0,7.5-3.4,7.5-7.5
	S379.6,281,375.5,281z"/>
<path class="st0" d="M167,264.5v-24c0-9.1,7.4-16.5,16.5-16.5h8c4.1,0,7.5-3.4,7.5-7.5s-3.4-7.5-7.5-7.5h-8
	c-17.4,0-31.5,14.1-31.5,31.5v24c0,9.1-7.4,16.5-16.5,16.5c-4.1,0-7.5,3.4-7.5,7.5s3.4,7.5,7.5,7.5c9.1,0,16.5,7.4,16.5,16.5v24
	c0,17.4,14.1,31.5,31.5,31.5h8c4.1,0,7.5-3.4,7.5-7.5s-3.4-7.5-7.5-7.5h-8c-9.1,0-16.5-7.4-16.5-16.5v-24c0-9.6-4.3-18.2-11.1-24
	C162.7,282.7,167,274.1,167,264.5z"/>
<path class="st0" d="M119.5,104h304c4.1,0,7.5-3.4,7.5-7.5s-3.4-7.5-7.5-7.5h-304c-4.1,0-7.5,3.4-7.5,7.5S115.4,104,119.5,104z"/>
<path class="st0" d="M455.5,104h16c4.1,0,7.5-3.4,7.5-7.5s-3.4-7.5-7.5-7.5h-16c-4.1,0-7.5,3.4-7.5,7.5S451.4,104,455.5,104z"/>
<path class="st0" d="M471.5,57h-432C17.7,57,0,74.7,0,96.5v320C0,438.3,17.7,456,39.5,456h432c21.8,0,39.5-17.7,39.5-39.5v-320
	C511,74.7,493.3,57,471.5,57z M39.5,72h432C485,72,496,83,496,96.5V121H15V96.5C15,83,26,72,39.5,72z M471.5,441h-432
	C26,441,15,430,15,416.5V136h481v280.5C496,430,485,441,471.5,441z"/>
</svg>
