<?xml version="1.0" encoding="utf-8"?>
<!-- Generator: Adobe Illustrator 22.0.0, SVG Export Plug-In . SVG Version: 6.00 Build 0)  -->
<svg version="1.1" id="Layer_1" xmlns="http://www.w3.org/2000/svg" xmlns:xlink="http://www.w3.org/1999/xlink" x="0px" y="0px"
	 viewBox="0 0 485 485" style="enable-background:new 0 0 485 485;" xml:space="preserve">
<style type="text/css">
	.st0{fill:#FFFFFF;}
</style>
<g>
	<path class="st0" d="M168.4,305.5h68.2l18.4,61.1h57.9L239,128.3h-70.6L95.5,366.6h55.9L168.4,305.5z M201.2,168.5h0.7
		c3.5,14.3,27,96.5,27,96.5h-52.8C176.1,265.1,197.7,182.8,201.2,168.5z"/>
	<rect x="334" y="193.8" class="st0" width="53.8" height="172.8"/>
	<path class="st0" d="M360.5,172.5c17.8,0,29-12.1,29-26.9c-0.4-15.6-11.2-27.2-28.6-27.2s-28.7,11.7-28.4,27.2
		C332.2,160.4,343.6,172.5,360.5,172.5z"/>
	<path class="st0" d="M0,0v485h485V0H0z M455,455H30V30h425V455z"/>
</g>
</svg>
