<?xml version="1.0" encoding="utf-8"?>
<!-- Generator: Adobe Illustrator 22.0.0, SVG Export Plug-In . SVG Version: 6.00 Build 0)  -->
<svg version="1.1" id="Calque_1" xmlns="http://www.w3.org/2000/svg" xmlns:xlink="http://www.w3.org/1999/xlink" x="0px" y="0px"
	 viewBox="0 0 595.3 595.3" style="enable-background:new 0 0 595.3 595.3;" xml:space="preserve">
<style type="text/css">
	.st0{fill:#A5CC75;stroke:#FFFFFF;stroke-width:10;stroke-miterlimit:10;}
	.st1{fill:#EAAD88;}
	.st2{fill:none;stroke:#D09B7A;stroke-width:4;stroke-miterlimit:10;}
	.st3{fill:#F2CCE2;}
	.st4{fill:#FFFFFF;}
	.st5{fill:none;stroke:#000000;stroke-miterlimit:10;}
	.st6{fill:#A5CC75;stroke:#FFFFFF;stroke-width:15;stroke-miterlimit:10;}
</style>
<circle class="st0" cx="1112.7" cy="-275.6" r="269.5"/>
<g>
	<polygon class="st1" points="1112.9,-77.5 1185.9,-264.1 1039.9,-264.1 	"/>
	<g>
		<g>
			<g>
				<line class="st2" x1="1176.8" y1="-222.7" x2="1052.6" y2="-222.7"/>
				<line class="st2" x1="1153.9" y1="-190.7" x2="1062.9" y2="-190.7"/>
			</g>
			<g>
				<line class="st2" x1="1165.4" y1="-190.7" x2="1062.9" y2="-190.7"/>
				<line class="st2" x1="1148.9" y1="-158.7" x2="1072.9" y2="-158.7"/>
			</g>
			<g>
				<line class="st2" x1="1144.7" y1="-158.7" x2="1072.9" y2="-158.7"/>
				<path class="st2" d="M1080.8-126.7"/>
				<path class="st2" d="M1145.1-126.7"/>
			</g>
		</g>
		<g>
			<g>
				<line class="st2" x1="1081.1" y1="-260.2" x2="1081.1" y2="-158.7"/>
				<line class="st2" x1="1113.1" y1="-250.8" x2="1113.1" y2="-95.8"/>
			</g>
			<g>
				<line class="st2" x1="1113.1" y1="-250.8" x2="1113.1" y2="-95.8"/>
				<line class="st2" x1="1145.1" y1="-260.2" x2="1145.1" y2="-153.2"/>
			</g>
		</g>
	</g>
	<path class="st3" d="M1209.3-364.8c0,58.9-41.8,106.7-100.7,106.7s-106.7-47.8-106.7-106.7s49.6-121.4,106.7-106.7
		C1209.3-445.5,1209.3-423.7,1209.3-364.8z"/>
	<g>
		<path class="st4" d="M1112.6-122.6l64.5-172.5h27.3l-91.8,239.7l-91.8-239.7h27.3L1112.6-122.6z"/>
	</g>
	<g>
		<path class="st4" d="M1220.8-365.4c0.6,30.6-2.7,55.8-23.4,79.8c-20.7,24-52.2,37.8-83.7,37.8c-63.6,0-116.4-52.8-116.4-116.4
			c0-64.8,52.8-117.6,117.9-117.6c39.6,0,71.7,17.7,95.7,48.9l-18.3,17.1c-18.9-26.7-44.4-42.6-77.7-42.6
			c-51.6,0-92.4,43.5-92.4,94.5c0,24,9.6,46.8,26.4,63.9c16.5,16.5,40.5,28.8,64.2,28.8c39.3,0,80.7-28.8,80.7-70.8h-67.2v-23.4
			H1220.8z"/>
	</g>
</g>
<g>
	<polygon class="st1" points="240.2,-152 313.2,-338.6 167.3,-338.6 	"/>
	<g>
		<g>
			<g>
				<line class="st2" x1="304.1" y1="-297.2" x2="179.9" y2="-297.2"/>
				<line class="st2" x1="281.2" y1="-265.2" x2="190.2" y2="-265.2"/>
			</g>
			<g>
				<line class="st2" x1="292.7" y1="-265.2" x2="190.2" y2="-265.2"/>
				<line class="st2" x1="276.2" y1="-233.2" x2="200.2" y2="-233.2"/>
			</g>
			<g>
				<line class="st2" x1="272" y1="-233.2" x2="200.2" y2="-233.2"/>
				<path class="st2" d="M208.1-201.2"/>
				<path class="st2" d="M272.4-201.2"/>
			</g>
		</g>
		<g>
			<g>
				<line class="st2" x1="208.4" y1="-334.7" x2="208.4" y2="-233.2"/>
				<line class="st2" x1="240.4" y1="-325.3" x2="240.4" y2="-170.3"/>
			</g>
			<g>
				<line class="st2" x1="240.4" y1="-325.3" x2="240.4" y2="-170.3"/>
				<line class="st2" x1="272.4" y1="-334.7" x2="272.4" y2="-227.7"/>
			</g>
		</g>
	</g>
	<path class="st3" d="M336.6-439.3c0,58.9-41.8,106.7-100.7,106.7s-106.7-47.8-106.7-106.7S178.8-560.7,235.9-546
		C336.6-520,336.6-498.2,336.6-439.3z"/>
	<g>
		<path class="st4" d="M239.9-197.1l64.5-172.5h27.3l-91.8,239.7l-91.8-239.7h27.3L239.9-197.1z"/>
	</g>
	<g>
		<path class="st4" d="M348.1-439.9c0.6,30.6-2.7,55.8-23.4,79.8c-20.7,24-52.2,37.8-83.7,37.8c-63.6,0-116.4-52.8-116.4-116.4
			c0-64.8,52.8-117.6,117.9-117.6c39.6,0,71.7,17.7,95.7,48.9l-18.3,17.1c-18.9-26.7-44.4-42.6-77.7-42.6
			c-51.6,0-92.4,43.5-92.4,94.5c0,24,9.6,46.8,26.4,63.9c16.5,16.5,40.5,28.8,64.2,28.8c39.3,0,80.7-28.8,80.7-70.8h-67.2v-23.4
			H348.1z"/>
	</g>
</g>
<path class="st5" d="M-113.3,148.6"/>
<path class="st5" d="M-633.7,230.7"/>
<circle class="st0" cx="997.3" cy="405.6" r="269.5"/>
<polygon class="st1" points="997.6,603.7 1070.6,417.1 924.6,417.1 "/>
<g>
	<g>
		<g>
			<line class="st2" x1="1061.4" y1="458.5" x2="937.3" y2="458.5"/>
			<line class="st2" x1="1038.6" y1="490.5" x2="947.6" y2="490.5"/>
		</g>
		<g>
			<line class="st2" x1="1050.1" y1="490.5" x2="947.6" y2="490.5"/>
			<line class="st2" x1="1033.6" y1="522.5" x2="957.6" y2="522.5"/>
		</g>
		<g>
			<line class="st2" x1="1029.4" y1="522.5" x2="957.6" y2="522.5"/>
			<path class="st2" d="M965.4,554.5"/>
			<path class="st2" d="M1029.8,554.5"/>
		</g>
	</g>
	<g>
		<g>
			<line class="st2" x1="965.8" y1="421" x2="965.8" y2="522.5"/>
			<line class="st2" x1="997.8" y1="430.4" x2="997.8" y2="585.4"/>
		</g>
		<g>
			<line class="st2" x1="997.8" y1="430.4" x2="997.8" y2="585.4"/>
			<line class="st2" x1="1029.8" y1="421" x2="1029.8" y2="528"/>
		</g>
	</g>
</g>
<g>
	<path class="st4" d="M997.2,558.6l64.5-172.5h27.3l-91.8,239.7l-91.8-239.7h27.3L997.2,558.6z"/>
</g>
<g>
	<ellipse class="st3" cx="997.4" cy="313.4" rx="116.3" ry="117"/>
	<path class="st4" d="M1008.1,312.3v23.9h77.6v0c-10.1,39.7-46.1,69-88.9,69c-50.7,0-91.8-41.1-91.8-91.8s41.1-91.8,91.8-91.8
		c32,0,60.2,16.4,76.6,41.2l18.7-17.3c-21.2-29.7-56-49.1-95.3-49.1c-64.6,0-117,52.4-117,117s52.4,117,117,117s117-52.4,117-117
		v-1.1H1008.1z"/>
</g>
<g>
	<circle class="st6" cx="296.6" cy="297" r="286.9"/>
	<polygon class="st1" points="296.8,508 374.6,309.2 219.1,309.2 	"/>
	<g>
		<g>
			<g>
				<line class="st2" x1="364.8" y1="353.3" x2="232.6" y2="353.3"/>
				<line class="st2" x1="340.5" y1="387.4" x2="243.6" y2="387.4"/>
			</g>
			<g>
				<line class="st2" x1="352.7" y1="387.4" x2="243.6" y2="387.4"/>
				<line class="st2" x1="335.2" y1="421.5" x2="254.2" y2="421.5"/>
			</g>
			<g>
				<line class="st2" x1="330.7" y1="421.5" x2="254.2" y2="421.5"/>
				<path class="st2" d="M262.6,455.6"/>
				<path class="st2" d="M331.1,455.6"/>
			</g>
		</g>
		<g>
			<g>
				<line class="st2" x1="263" y1="313.5" x2="263" y2="421.5"/>
				<line class="st2" x1="297" y1="323.4" x2="297" y2="488.5"/>
			</g>
			<g>
				<line class="st2" x1="297" y1="323.4" x2="297" y2="488.5"/>
				<line class="st2" x1="331.1" y1="313.5" x2="331.1" y2="427.4"/>
			</g>
		</g>
	</g>
	<g>
		<path class="st4" d="M296.4,460l68.7-183.7h29.1l-97.8,255.3l-97.8-255.3h29.1L296.4,460z"/>
	</g>
	<g>
		<ellipse class="st3" cx="297.8" cy="205.7" rx="110.1" ry="110.8"/>
		<path class="st4" d="M309.1,204.6V230h82.7v0c-10.8,42.2-49.1,73.4-94.7,73.4c-54,0-97.7-43.8-97.7-97.7S243.1,108,297,108
			c34.1,0,64.1,17.4,81.6,43.9l19.9-18.4C376,101.8,338.9,81.1,297,81.1c-68.8,0-124.6,55.8-124.6,124.6S228.2,330.3,297,330.3
			c68.8,0,124.6-55.8,124.6-124.6v-1.2H309.1z"/>
	</g>
</g>
</svg>
