<?xml version="1.0" encoding="iso-8859-1"?>
<!-- Generator: Adobe Illustrator 18.1.1, SVG Export Plug-In . SVG Version: 6.00 Build 0)  -->
<svg version="1.1" id="Capa_1" xmlns="http://www.w3.org/2000/svg" xmlns:xlink="http://www.w3.org/1999/xlink" x="0px" y="0px"
	 viewBox="0 0 14.976 14.976" style="enable-background:new 0 0 14.976 14.976;" xml:space="preserve">
<g>
	<path style="fill:#030104;" d="M13.834,3.396c0-0.247-0.068-0.499-0.205-0.748l-0.016-0.029c0.04-0.111,0.068-0.225,0.068-0.345
		C13.681,0.796,10.49,0,7.489,0C4.485,0,1.295,0.797,1.295,2.274c0,0.12,0.028,0.234,0.069,0.346L1.348,2.648
		c-0.137,0.25-0.206,0.501-0.206,0.748v1.828c0,0.281,0.089,0.551,0.246,0.807l-0.02,0.035c-0.15,0.26-0.226,0.522-0.226,0.783
		v1.827c0,0.273,0.085,0.535,0.232,0.783L1.367,9.471c-0.15,0.26-0.226,0.521-0.226,0.781v1.828c0,1.623,2.788,2.896,6.346,2.896
		c3.56,0,6.346-1.273,6.346-2.896v-1.828c0-0.26-0.075-0.523-0.227-0.783l-0.006-0.01c0.148-0.248,0.232-0.51,0.232-0.783V6.849
		c0-0.261-0.075-0.524-0.227-0.784l-0.02-0.033c0.157-0.256,0.246-0.526,0.246-0.808V3.396H13.834z M13.155,8.676
		c0,1.049-2.327,2.217-5.667,2.217S1.821,9.725,1.821,8.676V6.957c1.042,0.955,3.186,1.565,5.667,1.565s4.625-0.61,5.667-1.565
		V8.676z M13.155,5.224c0,1.049-2.327,2.216-5.667,2.216S1.821,6.273,1.821,5.224V3.703C2.84,4.566,5.2,5.014,7.488,5.014
		s4.647-0.447,5.667-1.311V5.224z M13.155,12.08c0,1.049-2.327,2.217-5.667,2.217s-5.667-1.168-5.667-2.217v-1.719
		c1.042,0.953,3.186,1.563,5.667,1.563s4.625-0.609,5.667-1.563V12.08z"/>
</g>
<g>
</g>
<g>
</g>
<g>
</g>
<g>
</g>
<g>
</g>
<g>
</g>
<g>
</g>
<g>
</g>
<g>
</g>
<g>
</g>
<g>
</g>
<g>
</g>
<g>
</g>
<g>
</g>
<g>
</g>
</svg>
