<?xml version="1.0" encoding="utf-8"?>
<!-- Generator: Adobe Illustrator 22.0.0, SVG Export Plug-In . SVG Version: 6.00 Build 0)  -->
<svg version="1.1" id="Layer_1" xmlns="http://www.w3.org/2000/svg" xmlns:xlink="http://www.w3.org/1999/xlink" x="0px" y="0px"
	 viewBox="0 0 485 485" style="enable-background:new 0 0 485 485;" xml:space="preserve">
<style type="text/css">
	.st0{fill:#FFFFFF;}
</style>
<g>
	<path class="st0" d="M321.3,328.4c-16.3,0-37.1-7.3-47.2-13.3l-9.7,39.2c13.3,7.3,33.9,12.3,56.9,12.3c50.4,0,76.4-24.1,76.4-57
		c-0.4-25.9-14.4-42.9-47.9-54.3c-21.5-7.6-28.3-12-28.3-20.2c0-9,7.5-14.4,20.8-14.4c15.1,0,30.2,5.8,38.2,10.1l9.7-37.8
		c-10.8-5.4-29.2-10.1-49.8-10.1c-43.6,0-71.7,24.9-71.7,57.6c-0.4,20.9,13.7,40.8,50.1,53c20.4,6.9,25.9,11.2,25.9,20.2
		C344.7,322.6,337.8,328.4,321.3,328.4z"/>
	<path class="st0" d="M141.7,276.2c5,0.7,11.6,1,18.7,1c32.4,0,60.2-7.9,78.8-25.5c14.5-13.7,22.4-33.9,22.4-57.6
		c0-23.8-10.3-44-26-56.2c-16.1-13.1-40.3-19.5-74.2-19.5c-33.5,0-57.3,2.2-74.1,5V363h54.3L141.7,276.2L141.7,276.2z M141.8,162
		c3.8-1.1,11.5-2.2,22.5-2.2c27.5,0,42.9,13.3,43,35.6c0,24.9-18.1,39.7-47.3,39.7c-7.9,0-13.6-0.3-18.3-1.4L141.8,162L141.8,162z"
		/>
	<path class="st0" d="M0,0v485h485V0H0z M455,455H30V30h425V455z"/>
</g>
</svg>
