<?xml version="1.0" encoding="utf-8"?>
<!-- Generator: Adobe Illustrator 22.0.0, SVG Export Plug-In . SVG Version: 6.00 Build 0)  -->
<svg version="1.1" id="Capa_1" xmlns="http://www.w3.org/2000/svg" xmlns:xlink="http://www.w3.org/1999/xlink" x="0px" y="0px"
	 viewBox="0 0 511 511" style="enable-background:new 0 0 511 511;" xml:space="preserve">
<style type="text/css">
	.st0{fill:#FFFFFF;}
</style>
<g>
	<path class="st0" d="M39.5,103c2,0,3.9-0.8,5.3-2.2c1.4-1.4,2.2-3.3,2.2-5.3s-0.8-3.9-2.2-5.3c-1.4-1.4-3.3-2.2-5.3-2.2
		c-2,0-3.9,0.8-5.3,2.2c-1.4,1.4-2.2,3.3-2.2,5.3s0.8,3.9,2.2,5.3C35.6,102.2,37.5,103,39.5,103z"/>
	<path class="st0" d="M63.5,103c2,0,3.9-0.8,5.3-2.2c1.4-1.4,2.2-3.3,2.2-5.3s-0.8-3.9-2.2-5.3c-1.4-1.4-3.3-2.2-5.3-2.2
		c-2,0-3.9,0.8-5.3,2.2c-1.4,1.4-2.2,3.3-2.2,5.3s0.8,3.9,2.2,5.3C59.6,102.2,61.5,103,63.5,103z"/>
	<path class="st0" d="M87.5,103c2,0,3.9-0.8,5.3-2.2c1.4-1.4,2.2-3.3,2.2-5.3s-0.8-3.9-2.2-5.3c-1.4-1.4-3.3-2.2-5.3-2.2
		s-3.9,0.8-5.3,2.2c-1.4,1.4-2.2,3.3-2.2,5.3s0.8,3.9,2.2,5.3C83.6,102.2,85.5,103,87.5,103z"/>
	<path class="st0" d="M375.5,280c-9.1,0-16.5-7.4-16.5-16.5v-24c0-17.4-14.1-31.5-31.5-31.5h-8c-4.1,0-7.5,3.4-7.5,7.5
		s3.4,7.5,7.5,7.5h8c9.1,0,16.5,7.4,16.5,16.5v24c0,9.6,4.3,18.2,11.1,24c-6.8,5.8-11.1,14.4-11.1,24v24c0,9.1-7.4,16.5-16.5,16.5
		h-8c-4.1,0-7.5,3.4-7.5,7.5s3.4,7.5,7.5,7.5h8c17.4,0,31.5-14.1,31.5-31.5v-24c0-9.1,7.4-16.5,16.5-16.5c4.1,0,7.5-3.4,7.5-7.5
		S379.6,280,375.5,280z"/>
	<path class="st0" d="M167,263.5v-24c0-9.1,7.4-16.5,16.5-16.5h8c4.1,0,7.5-3.4,7.5-7.5s-3.4-7.5-7.5-7.5h-8
		c-17.4,0-31.5,14.1-31.5,31.5v24c0,9.1-7.4,16.5-16.5,16.5c-4.1,0-7.5,3.4-7.5,7.5s3.4,7.5,7.5,7.5c9.1,0,16.5,7.4,16.5,16.5v24
		c0,17.4,14.1,31.5,31.5,31.5h8c4.1,0,7.5-3.4,7.5-7.5s-3.4-7.5-7.5-7.5h-8c-9.1,0-16.5-7.4-16.5-16.5v-24c0-9.6-4.3-18.2-11.1-24
		C162.7,281.7,167,273.1,167,263.5z"/>
	<path class="st0" d="M295.5,320c-2,0-3.9,0.8-5.3,2.2c-1.4,1.4-2.2,3.3-2.2,5.3s0.8,3.9,2.2,5.3c1.4,1.4,3.3,2.2,5.3,2.2
		c2,0,3.9-0.8,5.3-2.2c1.4-1.4,2.2-3.3,2.2-5.3s-0.8-3.9-2.2-5.3C299.4,320.8,297.5,320,295.5,320z"/>
	<path class="st0" d="M255.5,320c-2,0-3.9,0.8-5.3,2.2c-1.4,1.4-2.2,3.3-2.2,5.3c0,2,0.8,3.9,2.2,5.3c1.4,1.4,3.3,2.2,5.3,2.2
		s3.9-0.8,5.3-2.2c1.4-1.4,2.2-3.3,2.2-5.3s-0.8-3.9-2.2-5.3C259.4,320.8,257.5,320,255.5,320z"/>
	<path class="st0" d="M215.5,320c-2,0-3.9,0.8-5.3,2.2c-1.4,1.4-2.2,3.3-2.2,5.3s0.8,3.9,2.2,5.3c1.4,1.4,3.3,2.2,5.3,2.2
		s3.9-0.8,5.3-2.2c1.4-1.4,2.2-3.3,2.2-5.3s-0.8-3.9-2.2-5.3C219.4,320.8,217.5,320,215.5,320z"/>
	<path class="st0" d="M119.5,103h304c4.1,0,7.5-3.4,7.5-7.5s-3.4-7.5-7.5-7.5h-304c-4.1,0-7.5,3.4-7.5,7.5S115.4,103,119.5,103z"/>
	<path class="st0" d="M455.5,103h16c4.1,0,7.5-3.4,7.5-7.5s-3.4-7.5-7.5-7.5h-16c-4.1,0-7.5,3.4-7.5,7.5S451.4,103,455.5,103z"/>
	<path class="st0" d="M471.5,56h-432C17.7,56,0,73.7,0,95.5v320C0,437.3,17.7,455,39.5,455h432c21.8,0,39.5-17.7,39.5-39.5v-320
		C511,73.7,493.3,56,471.5,56z M39.5,71h432C485,71,496,82,496,95.5V120H15V95.5C15,82,26,71,39.5,71z M471.5,440h-432
		C26,440,15,429,15,415.5V135h481v280.5C496,429,485,440,471.5,440z"/>
</g>
</svg>
