<?xml version="1.0" encoding="utf-8"?>
<!-- Generator: Adobe Illustrator 22.0.0, SVG Export Plug-In . SVG Version: 6.00 Build 0)  -->
<svg version="1.1" id="Calque_1" focusable="false" xmlns="http://www.w3.org/2000/svg" xmlns:xlink="http://www.w3.org/1999/xlink"
	 x="0px" y="0px" viewBox="0 0 448 512" style="enable-background:new 0 0 448 512;" xml:space="preserve">
<style type="text/css">
	.st0{fill:#FFFFFF;}
</style>
<g>
	<path class="st0" d="M423,127.7c0-7.7-2.1-15.7-6.4-23.5l-0.5-0.9c1.3-3.5,2.1-7.1,2.1-10.8c0-46.4-100.1-71.3-194.2-71.3
		c-94.2,0-194.3,25-194.3,71.3c0,3.8,0.9,7.3,2.2,10.9l-0.5,0.9c-4.3,7.8-6.5,15.7-6.5,23.5V185c0,8.8,2.8,17.3,7.7,25.3l-0.6,1.1
		c-4.7,8.2-7.1,16.4-7.1,24.6v57.3c0,8.6,2.7,16.8,7.3,24.6l-0.2,0.4c-4.7,8.2-7.1,16.3-7.1,24.5V400c0,50.9,87.4,90.8,199,90.8
		c111.7,0,199-39.9,199-90.8v-57.3c0-8.2-2.4-16.4-7.1-24.6l-0.2-0.3c4.6-7.8,7.3-16,7.3-24.6V236c0-8.2-2.4-16.4-7.1-24.6l-0.6-1
		c4.9-8,7.7-16.5,7.7-25.3L423,127.7L423,127.7z M401.8,293.3c0,32.9-73,69.5-177.7,69.5S46.3,326.2,46.3,293.3v-53.9
		c32.7,30,99.9,49.1,177.7,49.1s145.1-19.1,177.7-49.1V293.3z M401.8,185c0,32.9-73,69.5-177.7,69.5S46.3,217.9,46.3,185v-47.7
		c32,27.1,106,41.1,177.7,41.1s145.7-14,177.7-41.1V185z M401.8,400c0,32.9-73,69.5-177.7,69.5S46.3,432.9,46.3,400v-53.9
		c32.7,29.9,99.9,49,177.7,49s145.1-19.1,177.7-49V400z"/>
</g>
</svg>
