<?xml version="1.0" encoding="utf-8"?>
<!-- Generator: Adobe Illustrator 22.0.0, SVG Export Plug-In . SVG Version: 6.00 Build 0)  -->
<svg version="1.1" id="Capa_1" xmlns="http://www.w3.org/2000/svg" xmlns:xlink="http://www.w3.org/1999/xlink" x="0px" y="0px"
	 viewBox="0 0 511 511" style="enable-background:new 0 0 511 511;" xml:space="preserve">
<style type="text/css">
	.st0{fill:#FFFFFF;}
</style>
<g>
	<path class="st0" d="M39.5,103c2,0,3.9-0.8,5.3-2.2c1.4-1.4,2.2-3.3,2.2-5.3s-0.8-3.9-2.2-5.3c-1.4-1.4-3.3-2.2-5.3-2.2
		c-2,0-3.9,0.8-5.3,2.2c-1.4,1.4-2.2,3.3-2.2,5.3s0.8,3.9,2.2,5.3C35.6,102.2,37.5,103,39.5,103z"/>
	<path class="st0" d="M63.5,103c2,0,3.9-0.8,5.3-2.2c1.4-1.4,2.2-3.3,2.2-5.3s-0.8-3.9-2.2-5.3c-1.4-1.4-3.3-2.2-5.3-2.2
		c-2,0-3.9,0.8-5.3,2.2c-1.4,1.4-2.2,3.3-2.2,5.3s0.8,3.9,2.2,5.3C59.6,102.2,61.5,103,63.5,103z"/>
	<path class="st0" d="M87.5,103c2,0,3.9-0.8,5.3-2.2c1.4-1.4,2.2-3.3,2.2-5.3s-0.8-3.9-2.2-5.3c-1.4-1.4-3.3-2.2-5.3-2.2
		s-3.9,0.8-5.3,2.2c-1.4,1.4-2.2,3.3-2.2,5.3s0.8,3.9,2.2,5.3C83.6,102.2,85.5,103,87.5,103z"/>
	<path class="st0" d="M220.8,210.2c-2.9-2.9-7.7-2.9-10.6,0l-72,72c-2.9,2.9-2.9,7.7,0,10.6l72,72c1.5,1.5,3.4,2.2,5.3,2.2
		s3.8-0.7,5.3-2.2c2.9-2.9,2.9-7.7,0-10.6l-66.7-66.7l66.7-66.7C223.7,217.9,223.7,213.1,220.8,210.2z"/>
	<path class="st0" d="M295.5,352c-2,0-3.9,0.8-5.3,2.2c-1.4,1.4-2.2,3.3-2.2,5.3s0.8,3.9,2.2,5.3c1.4,1.4,3.3,2.2,5.3,2.2
		s3.9-0.8,5.3-2.2c1.4-1.4,2.2-3.3,2.2-5.3s-0.8-3.9-2.2-5.3C299.4,352.8,297.5,352,295.5,352z"/>
	<path class="st0" d="M295.5,208c-30.6,0-55.5,24.9-55.5,55.5c0,4.1,3.4,7.5,7.5,7.5s7.5-3.4,7.5-7.5c0-22.3,18.2-40.5,40.5-40.5
		s40.5,18.2,40.5,40.5S317.8,304,295.5,304c-4.1,0-7.5,3.4-7.5,7.5v16c0,4.1,3.4,7.5,7.5,7.5s7.5-3.4,7.5-7.5v-9
		c27.1-3.7,48-26.9,48-55C351,232.9,326.1,208,295.5,208z"/>
	<path class="st0" d="M119.5,103h304c4.1,0,7.5-3.4,7.5-7.5s-3.4-7.5-7.5-7.5h-304c-4.1,0-7.5,3.4-7.5,7.5S115.4,103,119.5,103z"/>
	<path class="st0" d="M455.5,103h16c4.1,0,7.5-3.4,7.5-7.5s-3.4-7.5-7.5-7.5h-16c-4.1,0-7.5,3.4-7.5,7.5S451.4,103,455.5,103z"/>
	<path class="st0" d="M471.5,56h-432C17.7,56,0,73.7,0,95.5v320C0,437.3,17.7,455,39.5,455h432c21.8,0,39.5-17.7,39.5-39.5v-320
		C511,73.7,493.3,56,471.5,56z M39.5,71h432C485,71,496,82,496,95.5V120H15V95.5C15,82,26,71,39.5,71z M471.5,440h-432
		C26,440,15,429,15,415.5V135h481v280.5C496,429,485,440,471.5,440z"/>
</g>
</svg>
