<?xml version="1.0" encoding="utf-8"?>
<!-- Generator: Adobe Illustrator 22.0.0, SVG Export Plug-In . SVG Version: 6.00 Build 0)  -->
<svg version="1.1" id="Calque_1" focusable="false" xmlns="http://www.w3.org/2000/svg" xmlns:xlink="http://www.w3.org/1999/xlink"
	 x="0px" y="0px" viewBox="0 0 448 512" style="enable-background:new 0 0 448 512;" xml:space="preserve">
<style type="text/css">
	.st0{fill:#FFFFFF;}
</style>
<path class="st0" d="M292.3,311.9c0,42.4-39.7,41.4-43.9,41.4h-80.9v-81.7h80.9C290.9,271.7,292.3,303.6,292.3,311.9z M242.1,238.8
	c0.7,0,38.4,1,38.4-36.3c0-15.5-3.5-35.9-38.4-35.9h-74.7v72.2H242.1z M448,106.7v298.7c-0.1,41.2-33.5,74.5-74.7,74.7H74.7
	C33.5,479.9,0.1,446.5,0,405.3V106.7C0.1,65.5,33.5,32.1,74.7,32h298.7C414.5,32.1,447.9,65.5,448,106.7z M338,317.9
	c0-21.6-6.6-58.3-49-67.4v-0.7c22.9-9.8,37.3-28.3,37.3-55.6c0-7,2-64.8-77.6-64.8h-127v261.3c128.2,0,139.9,1.7,163.6-5.7
	C299.5,380.6,338,367,338,317.9z"/>
</svg>
