<?xml version="1.0" encoding="utf-8"?>
<!-- Generator: Adobe Illustrator 22.0.0, SVG Export Plug-In . SVG Version: 6.00 Build 0)  -->
<svg version="1.1" id="Layer_1" xmlns="http://www.w3.org/2000/svg" xmlns:xlink="http://www.w3.org/1999/xlink" x="0px" y="0px"
	 viewBox="0 0 485 485" style="enable-background:new 0 0 485 485;" xml:space="preserve">
<style type="text/css">
	.st0{fill:#FFFFFF;}
</style>
<g>
	<rect x="117.5" y="130.7" class="st0" width="52.6" height="232"/>
	<path class="st0" d="M265.3,366.6c21.6,0,42-9.7,52.6-28.6h0.8l2.3,24.7h46.5c-0.6-11.3-1.4-31.3-1.4-50.3v-194h-52.3v91.2h-0.6
		c-7.5-11.7-23.8-19-44.5-19c-40.3,0-75.8,32.7-75.3,89.5C193.4,332.5,225.3,366.6,265.3,366.6z M282.4,230.6
		c16.2,0,27.5,11.7,30.5,25.8c0.5,2.8,0.8,6.6,0.8,9.4v21.9c0,4.5-0.3,8.3-1.4,12.1c-3.1,14.8-15.1,25.1-30.3,25.1
		c-21.8,0-35.8-17.9-35.8-46.4C246.3,251.9,258.6,230.6,282.4,230.6z"/>
	<path class="st0" d="M0,0v485h485V0H0z M455,455H30V30h425V455z"/>
</g>
</svg>
