<?xml version="1.0" encoding="utf-8"?>
<!-- Generator: Adobe Illustrator 22.0.0, SVG Export Plug-In . SVG Version: 6.00 Build 0)  -->
<svg version="1.1" id="Calque_1" xmlns="http://www.w3.org/2000/svg" xmlns:xlink="http://www.w3.org/1999/xlink" x="0px" y="0px"
	 viewBox="0 0 30 30" enable-background="new 0 0 30 30" xml:space="preserve">
<path fill-rule="evenodd" clip-rule="evenodd" fill="#FFFFFF" d="M14.959,0.89c-7.988,0-14.466,6.477-14.466,14.468
	c0,6.391,4.145,11.813,9.894,13.727c0.723,0.133,0.987-0.314,0.987-0.697c0-0.343-0.013-1.253-0.02-2.46
	c-4.024,0.874-4.873-1.939-4.873-1.939c-0.658-1.671-1.606-2.116-1.606-2.116c-1.314-0.898,0.099-0.879,0.099-0.879
	c1.452,0.102,2.216,1.491,2.216,1.491c1.291,2.211,3.386,1.572,4.21,1.202c0.131-0.935,0.505-1.572,0.918-1.934
	c-3.212-0.365-6.59-1.606-6.59-7.15c0-1.579,0.564-2.871,1.489-3.882C7.07,10.353,6.574,8.882,7.361,6.89
	c0,0,1.215-0.389,3.978,1.483c1.154-0.321,2.391-0.481,3.622-0.487c1.229,0.006,2.466,0.166,3.622,0.487
	c2.762-1.872,3.974-1.483,3.974-1.483c0.789,1.992,0.293,3.463,0.144,3.829c0.927,1.011,1.487,2.303,1.487,3.882
	c0,5.558-3.382,6.781-6.605,7.139c0.519,0.447,0.982,1.33,0.982,2.679c0,1.934-0.018,3.494-0.018,3.969
	c0,0.387,0.261,0.837,0.995,0.696c5.744-1.917,9.885-7.336,9.885-13.725C29.427,7.367,22.949,0.89,14.959,0.89z"/>
</svg>
