<?xml version="1.0" encoding="utf-8"?>
<!-- Generator: Adobe Illustrator 22.0.0, SVG Export Plug-In . SVG Version: 6.00 Build 0)  -->
<svg version="1.1" id="Calque_1" xmlns="http://www.w3.org/2000/svg" xmlns:xlink="http://www.w3.org/1999/xlink" x="0px" y="0px"
	 viewBox="0 0 50 13" enable-background="new 0 0 50 13" xml:space="preserve">
<g>
	<path fill="#FFFFFF" d="M6.545,0.311c-3.384,0-6.128,2.743-6.128,6.127c0,3.385,2.744,6.128,6.128,6.128
		c3.385,0,6.128-2.744,6.128-6.128C12.674,3.054,9.93,0.311,6.545,0.311z M9.85,3.858c-0.284,0.01-0.479-0.159-0.489-0.417
		C9.359,3.346,9.383,3.264,9.448,3.167c0.063-0.124,0.077-0.138,0.075-0.192C9.517,2.813,9.272,2.807,9.205,2.81
		c-0.92,0.03-1.162,1.272-1.359,2.281L7.75,5.623C8.28,5.701,8.656,5.605,8.865,5.47C9.161,5.278,8.783,5.081,8.83,4.863
		c0.049-0.222,0.251-0.329,0.411-0.334c0.225-0.005,0.385,0.228,0.38,0.464C9.614,5.385,9.094,5.923,8.056,5.901
		C7.929,5.898,7.813,5.889,7.704,5.876L7.508,6.957C7.333,7.776,7.1,8.895,6.266,9.872c-0.716,0.852-1.443,0.984-1.769,0.995
		c-0.609,0.02-1.013-0.304-1.027-0.737C3.456,9.709,3.827,9.48,4.071,9.472c0.325-0.011,0.55,0.224,0.558,0.496
		c0.008,0.23-0.112,0.301-0.191,0.345c-0.053,0.042-0.133,0.086-0.13,0.181c0.002,0.04,0.046,0.133,0.181,0.129
		c0.258-0.009,0.428-0.136,0.548-0.221C5.63,9.907,5.859,9.046,6.158,7.477l0.063-0.38c0.102-0.51,0.215-1.079,0.388-1.645
		C6.189,5.137,5.939,4.747,5.377,4.594C4.991,4.489,4.756,4.578,4.591,4.787C4.395,5.035,4.46,5.357,4.649,5.546l0.312,0.345
		c0.383,0.443,0.592,0.787,0.514,1.251C5.35,7.881,4.469,8.448,3.427,8.128C2.538,7.854,2.372,7.225,2.479,6.878
		c0.094-0.305,0.337-0.363,0.574-0.29c0.254,0.078,0.353,0.387,0.281,0.624C3.325,7.237,3.312,7.279,3.286,7.336
		C3.256,7.402,3.202,7.459,3.178,7.535C3.121,7.721,3.376,7.854,3.554,7.908C3.952,8.03,4.339,7.823,4.438,7.501
		C4.53,7.205,4.343,6.998,4.265,6.919L3.889,6.516C3.716,6.324,3.337,5.789,3.522,5.188c0.071-0.231,0.221-0.477,0.439-0.64
		c0.46-0.343,0.96-0.399,1.436-0.262c0.616,0.178,0.912,0.585,1.297,0.9c0.215-0.63,0.512-1.247,0.96-1.768
		C8.059,2.943,8.602,2.6,9.225,2.578c0.622-0.02,1.092,0.261,1.108,0.708C10.339,3.476,10.229,3.845,9.85,3.858z"/>
	<g>
		<g>
			<path fill="#FFFFFF" d="M37.572,4.715c1.413,0,2.36,1.021,2.36,2.433c0,1.331-0.966,2.433-2.36,2.433
				c-1.403,0-2.369-1.102-2.369-2.433C35.203,5.736,36.15,4.715,37.572,4.715z M37.572,8.889c1.002,0,1.449-0.912,1.449-1.741
				c0-0.884-0.537-1.74-1.449-1.74c-0.92,0-1.458,0.857-1.458,1.74C36.114,7.978,36.56,8.889,37.572,8.889z"/>
		</g>
		<path fill="#FFFFFF" d="M35.085,5.147V4.824h-1.23V4.382c0-0.629,0.091-1.103,0.829-1.103c0.014,0,0.028,0.001,0.042,0.001
			c0.002,0,0.001-0.002,0.003-0.002c0.205,0.015,0.375-0.152,0.387-0.356l0.015-0.281c-0.173-0.027-0.356-0.055-0.574-0.055
			c-1.267,0-1.559,0.738-1.559,1.868v0.369h-1.094v0.361c0.028,0.187,0.188,0.331,0.383,0.331c0.001,0,0.002,0.001,0.003,0.001
			h0.708v3.955h0.472c0.001,0,0,0,0.001,0c0.196,0,0.357-0.147,0.383-0.336V5.517h0.857C34.914,5.51,35.076,5.349,35.085,5.147z"/>
		<path fill="#FFFFFF" d="M23.674,4.824c-0.002,0-0.002,0.001-0.004,0.001c-0.181,0-0.355,0.124-0.432,0.292L22.059,8.67h-0.018
			l-1.153-3.552c-0.075-0.168-0.251-0.293-0.432-0.293c-0.002,0-0.003-0.001-0.005-0.001h-0.597l1.577,4.338
			c0.055,0.155,0.164,0.392,0.164,0.492c0,0.091-0.255,1.148-1.021,1.148c-0.019,0-0.038-0.002-0.057-0.003
			c-0.195-0.011-0.343,0.126-0.376,0.336l-0.023,0.296c0.155,0.027,0.31,0.064,0.584,0.064c1.13,0,1.467-1.03,1.786-1.923
			l1.713-4.748H23.674z"/>
		<path fill="#FFFFFF" d="M18.229,5.768c-0.708-0.362-1.481-0.608-1.495-1.336c0.002-0.774,0.713-0.977,1.261-0.976
			C17.996,3.456,17.999,3.456,18,3.456c0.238,0,0.428,0.024,0.614,0.064c0.002,0,0.002-0.003,0.005-0.003
			c0.196,0.014,0.36-0.139,0.384-0.333l0.016-0.281c-0.359-0.089-0.734-0.134-1.061-0.134c-1.191,0.007-2.075,0.606-2.078,1.75
			c0.002,1,0.676,1.387,1.4,1.738c0.711,0.342,1.49,0.624,1.496,1.449c-0.004,0.861-0.835,1.178-1.407,1.179
			c-0.335-0.001-0.698-0.085-1.004-0.181c-0.192-0.031-0.35,0.138-0.374,0.362l-0.026,0.251c0.421,0.136,0.853,0.255,1.286,0.255
			c0,0,0.001,0,0.002,0c0.001,0,0.002,0,0.004,0c1.334-0.01,2.371-0.542,2.375-1.923C19.628,6.582,18.95,6.135,18.229,5.768z"/>
		<path fill="#FFFFFF" d="M31.185,9.472C31.186,9.472,31.186,9.472,31.185,9.472c0.186,0,0.34-0.13,0.379-0.304V6.492
			c0-1.012-0.428-1.777-1.614-1.777c-0.419,0-1.12,0.237-1.439,0.902c-0.246-0.629-0.784-0.902-1.322-0.902
			c-0.684,0-1.149,0.246-1.476,0.784h-0.019V5.209c-0.003-0.213-0.175-0.384-0.388-0.384c-0.002,0-0.003-0.001-0.004-0.001h-0.41
			v4.648h0.464c0,0,0,0,0.001,0c0.215,0,0.389-0.174,0.389-0.389c0-0.006,0.002-0.008,0.003-0.012V7.13
			c0-0.866,0.346-1.723,1.221-1.723c0.693,0,0.83,0.72,0.83,1.294v2.77h0.47c0,0,0,0,0.002,0c0.202,0,0.366-0.156,0.384-0.354V7.13
			c0-0.866,0.347-1.723,1.221-1.723c0.693,0,0.83,0.72,0.83,1.294v2.77H31.185z"/>
		<path fill="#FFFFFF" d="M44.423,9.472c0.001,0,0.001,0,0.002,0c0.209,0,0.377-0.165,0.387-0.371v-2.39
			c0-1.248-0.538-1.996-1.741-1.996c-0.647,0-1.266,0.319-1.522,0.848h-0.018V5.215c0,0-0.001,0-0.001-0.001
			c0-0.215-0.174-0.389-0.388-0.389c-0.002,0-0.003-0.001-0.005-0.001h-0.436v4.648h0.471c0,0,0,0,0.002,0
			c0.204,0,0.369-0.158,0.385-0.358V7.321c0-1.13,0.438-1.914,1.413-1.914c0.748,0.045,0.984,0.574,0.984,1.658v2.406H44.423z"/>
		<path fill="#FFFFFF" d="M49.035,4.824c-0.001,0-0.002,0.001-0.005,0.001c-0.181,0-0.356,0.124-0.431,0.292L47.421,8.67h-0.019
			l-1.153-3.552c-0.075-0.168-0.251-0.293-0.433-0.293c-0.001,0-0.003-0.001-0.004-0.001h-0.597l1.577,4.338
			c0.055,0.155,0.165,0.392,0.165,0.492c0,0.091-0.256,1.148-1.021,1.148c-0.019,0-0.038-0.002-0.057-0.003
			c-0.195-0.011-0.342,0.126-0.375,0.336l-0.023,0.296c0.155,0.027,0.31,0.064,0.584,0.064c1.13,0,1.467-1.03,1.786-1.923
			l1.713-4.748H49.035z"/>
	</g>
</g>
</svg>
